# xmcd
#
# Track frame offsets:
#	182
#	14560
#	28392
#	39937
#	54235
#	70022
#	83920
#	98250
#	112725
#	126402
#	145957
#	158377
#	170967
#	183545
#	195752
#	208157
#
# Disc length: 2970
#
# Revision: 2
# Processed by: cddbd v1.5.1PL0 Copyright (c) Steve Scherf et al.
# Submitted via: OrangeCD 5.2
# Normalized: r1:DSETVAR1
#
DISCID=d00b9810
DTITLE=Various Artist - Country Fun
DYEAR=1999
DGENRE=Country
TTITLE0=Faith Hill - Let's Go To Vegas
TTITLE1=Micheal Peterson - Drink, Swear, Steal, And Lie
TTITLE2=John Michael Montgomery - Sold (The Grundy County Auction Incident)
TTITLE3=Bryan White - Sittin' On Go
TTITLE4=Little Texas - God Blessed Texas
TTITLE5=Dwight Yoakam - Guitars, Cadillacs
TTITLE6=Anita Cochran - I Could Love A Man Like That
TTITLE7=Travis Tritt - Country Club
TTITLE8=David Ball - Thinkin' Problem
TTITLE9=Lila McCann - I Wanna Fall In Love
TTITLE10=Neal McCoy - Wink
TTITLE11=Daryle Singletary - Too Much Fun
TTITLE12=Tracy Lawrence - My Second Home
TTITLE13=Randy Travis - Better Class Of Losers
TTITLE14=Mila Mason - That's Enough Of That
TTITLE15=Confederate Railroad - Trashy Women
EXTD=
EXTT0=
EXTT1=
EXTT2=
EXTT3=
EXTT4=
EXTT5=
EXTT6=
EXTT7=
EXTT8=
EXTT9=
EXTT10=
EXTT11=
EXTT12=
EXTT13=
EXTT14=
EXTT15=
PLAYORDER=
